<svg xmlns="http://www.w3.org/2000/svg" width="130" height="94.37" viewBox="0 0 130 94.37"><defs><style>.a,.b{fill:#b5a272;letter-spacing:0.1em;}.a{font-size:20px;font-family:NotoSerifJP-Regular, Noto Serif JP;}.b{font-size:12px;font-family:TimesNewRomanPSMT, Times New Roman;}.c{fill:#a68e5c;}.d{fill:#e36390;opacity:0;}</style></defs><text class="a" transform="translate(65 71.237)"><tspan x="-65" y="0">サービス</tspan><tspan y="0">案内</tspan></text><text class="b" transform="translate(64 91.37)"><tspan x="-21.591" y="0">Service</tspan></text><path class="c" d="M3364.456,2885.1a27.059,27.059,0,0,0-3.664-3.987,8.738,8.738,0,0,0,.4-1.418.7.7,0,0,0,0-.229c-.3-2.047-3.663-7.848-7.638-8.98-2.715-.776-4.725.772-5.935,2.211-.154.008-.308.02-.458.036h-.006c-1.728-1.614-5-3.935-8.159-2.117a6.214,6.214,0,0,0-1.91,1.772,19.651,19.651,0,0,0-6.363-2.243.694.694,0,0,0-.543.161.709.709,0,0,0-.25.5c-.008.171-.184,4.022,1.072,6.529a10.813,10.813,0,0,0-5.02,1.125.705.705,0,0,0-.253.63c.108.911,3.891,7.748,8.635,8.833l.011,0a8.77,8.77,0,0,0,5.245,3.8,7.765,7.765,0,0,0,1.69.23c2.056,2.581,6.308,4.359,6.489,4.435a.7.7,0,0,0,.27.053.721.721,0,0,0,.295-.063,23.9,23.9,0,0,0,5.275-3.4,5.524,5.524,0,0,0,4.124-.748,21.7,21.7,0,0,0,6.807-6.574A.706.706,0,0,0,3364.456,2885.1Zm-29.3-5.9q0,.246.018.492a6.632,6.632,0,0,0-1.626,6.389c.007.025.015.051.022.076-3.038-1.411-5.588-5.392-6.258-6.793A14.553,14.553,0,0,1,3335.155,2879.2Zm.056-1.446a14.583,14.583,0,0,0-2.523-.39c-1.157-1.427-1.331-4.4-1.349-5.672a20.24,20.24,0,0,1,5.019,1.905A11.735,11.735,0,0,0,3335.211,2877.753Zm.227,3.946c.036.166.074.328.115.489,1.013,3.94,3.763,6.311,7.551,6.515a6.936,6.936,0,0,0,1.474.9,5.617,5.617,0,0,1-4.612.759,7.086,7.086,0,0,1-5.062-4.667A4.965,4.965,0,0,1,3335.438,2881.7Zm15.02,2.942c-1.437.364-3.192.143-3.817-1.562a2.118,2.118,0,0,1,.416-2.526,2.58,2.58,0,0,1,2.84-.134,1.63,1.63,0,0,1,.568,1.98.706.706,0,0,0,1.033.8.7.7,0,0,0,.33-.427,3.022,3.022,0,0,0-1.152-3.531,4.045,4.045,0,0,0-4.5.205,3.44,3.44,0,0,0-.866,4.121c.782,2.132,2.938,3.094,5.492,2.445,2.9-.738,5.616-3.454,5.136-6.726a7.433,7.433,0,0,0-6.447-6.493,3.777,3.777,0,0,1,3.677-.95c3.276.933,6.243,5.888,6.608,7.713-.986,4.737-7.3,9.484-12.339,9.277-2.537-.112-5.688-1.546-6.292-7.726-.256-4.328,3.013-6.647,6.161-6.97a7.335,7.335,0,0,1,.775-.04,6.2,6.2,0,0,1,6.46,5.393C3354.909,2881.971,3352.753,2884.058,3350.458,2884.641Zm-8.589-9.451a7.691,7.691,0,0,0-2.129,6.026,12.6,12.6,0,0,0,1.84,5.817,6.774,6.774,0,0,1-4.66-5.2c-1.019-3.96.258-8.539,2.787-10,1.6-.922,3.565-.493,5.708,1.245A8.329,8.329,0,0,0,3341.869,2875.19Zm4.347,14.917a8.064,8.064,0,0,0,1.163.136,13.08,13.08,0,0,0,7.181-2.107,2.172,2.172,0,0,1-.048,1.391c-.88,2.54-5.315,4.873-6.451,5.436a19.064,19.064,0,0,1-5-3.18A7.013,7.013,0,0,0,3346.216,2890.107Zm9.63-.116a3.539,3.539,0,0,0-.079-2.661c.095-.069.19-.14.285-.212a14.986,14.986,0,0,0,4.127-4.662,26.677,26.677,0,0,1,2.839,3.082c-1.145,1.539-5.089,6.067-8.164,6.177A5.956,5.956,0,0,0,3355.846,2889.991Z" transform="translate(-3280.16 -2857.894)"/><circle class="d" cx="14" cy="14" r="14" transform="translate(63)"/></svg>