<svg xmlns="http://www.w3.org/2000/svg" width="108" height="89.37" viewBox="0 0 108 89.37"><defs><style>.a,.b{fill:#b5a272;letter-spacing:0.1em;}.a{font-size:20px;font-family:NotoSerifJP-Regular, Noto Serif JP;}.b{font-size:12px;font-family:TimesNewRomanPSMT, Times New Roman;}.c{fill:#a68e5c;}.d{fill:#e36390;opacity:0;}</style></defs><text class="a" transform="translate(54 66.237)"><tspan x="-54" y="0">教室</tspan><tspan y="0">の</tspan><tspan y="0">案内</tspan></text><text class="b" transform="translate(53 86.37)"><tspan x="-30.467" y="0">Classroom</tspan></text><path class="c" d="M3751.239,2903.613a3.29,3.29,0,0,0-.795-1.563,4.68,4.68,0,0,0-1.237-1.025,1.256,1.256,0,0,0-1.663.183c-.3.3-.63.579-.951.853-.172.145-.342.29-.509.437l-2.438,2.157v-4.578a.3.3,0,0,0-.1-.223c-.05-.044-.1-.091-.158-.15a2.234,2.234,0,0,0-.491-.389,12.989,12.989,0,0,0-5.047-1.313,20.528,20.528,0,0,0-6.4.371c-.509.116-1.034.265-1.608.454a.756.756,0,0,0-.447.386.81.81,0,0,0,.941,1.142c.064-.016.128-.038.2-.063a1.507,1.507,0,0,1,.213-.064c.3-.06.608-.124.929-.191.728-.152,1.481-.31,2.225-.4a18.369,18.369,0,0,1,4.355.045,13.036,13.036,0,0,1,3.541.872.345.345,0,0,1,.262.387l-.005,5.123-5.64,4.993a.3.3,0,0,0-.079.11l-1.558,3.767a.54.54,0,0,0,.081.543.532.532,0,0,0,.269.178.567.567,0,0,0,.262.012l4.013-.865a.285.285,0,0,0,.134-.068s1.124-.98,2.516-2.2v7.665c0,.057,0,.112-.006.173a1.444,1.444,0,0,0-.211-.065c-.3-.063-.6-.132-.917-.205-.7-.16-1.429-.327-2.155-.417a21.276,21.276,0,0,0-4.408-.027,32.064,32.064,0,0,0-6.154,1.086,2.826,2.826,0,0,1-1.442.032,30.532,30.532,0,0,0-8.463-1.2l-.517,0a15.984,15.984,0,0,0-3.51.39c-.366.087-.723.185-1.1.291l-.356.1v-3.438c0-5.216,0-10.61-.009-15.914a.41.41,0,0,1,.317-.47,16.337,16.337,0,0,1,5.233-.973,24.771,24.771,0,0,1,4.486.182,15.528,15.528,0,0,1,4.222,1.11.344.344,0,0,1,.25.39c-.009,5.052-.008,10.186-.007,15.151v1.784a.828.828,0,0,0,.8.916.811.811,0,0,0,.8-.906v-5.017q0-6.273.005-12.544a.915.915,0,0,0-.583-.938c-.205-.085-.41-.175-.614-.264a12.979,12.979,0,0,0-1.575-.612,24.3,24.3,0,0,0-11.167-.5,10.181,10.181,0,0,0-3.253,1.123.886.886,0,0,0-.5.853c.01.284.008.571.006.849l0,20.385a.814.814,0,0,0,1.239.792,10.144,10.144,0,0,1,4.155-1.082,23.265,23.265,0,0,1,4.115.054,28.753,28.753,0,0,1,5.54,1.033,4.165,4.165,0,0,0,1.164.168,4.081,4.081,0,0,0,1.166-.171,27.988,27.988,0,0,1,5.289-1.014,22.568,22.568,0,0,1,5.014-.007,9.482,9.482,0,0,1,3.37.944c.63.342.928.274,1.319-.258a.3.3,0,0,0,.058-.177v-10.676c.778-.683,1.542-1.358,2.167-1.912l3.188-2.842,1.321-1.183c.071-.063.144-.123.215-.182a1.476,1.476,0,0,0,.725-1.2A1.241,1.241,0,0,0,3751.239,2903.613Zm-14.306,10.081.334-.754.533.629-.808.193Zm12.244-9.553c-1.027.906-2.449,2.17-3.964,3.516l-.443.394c-2,1.776-4.05,3.6-5.476,4.854l-1.135-1.338c1.808-1.6,7.571-6.687,9.885-8.722a6.139,6.139,0,0,0,.529.686A5.826,5.826,0,0,0,3749.177,2904.141Z" transform="translate(-3677.238 -2888.944)"/><circle class="d" cx="14" cy="14" r="14" transform="translate(55)"/></svg>