<svg xmlns="http://www.w3.org/2000/svg" width="86" height="91.682" viewBox="0 0 86 91.682"><defs><style>.a,.b{fill:#b5a272;letter-spacing:0.1em;}.a{font-size:20px;font-family:NotoSerifJP-Regular, Noto Serif JP;}.b{font-size:12px;font-family:TimesNewRomanPSMT, Times New Roman;}.c{fill:#a68e5c;}.d{fill:#e36390;opacity:0;}</style></defs><text class="a" transform="translate(43 68.549)"><tspan x="-43" y="0">総合案内</tspan></text><text class="b" transform="translate(42 88.682)"><tspan x="-22.587" y="0">General</tspan></text><g transform="translate(-2881.799 -2913.483)"><path class="c" d="M2932.755,2925.046a3.685,3.685,0,0,0-1.347.26c-2.617.649-8.076,2.369-10.905,3.3-8.468,2.782-10.924,3.974-11.718,4.536l-3.39-.686a.831.831,0,0,0-.963.577,16.169,16.169,0,0,0,0,9.356.827.827,0,0,0,.8.594.866.866,0,0,0,.166-.016l3.765-.763a.815.815,0,0,0,.257-.106,3.335,3.335,0,0,0,.478.307c.732.349,9.051,2.9,17.932,5.6,1.269.386,2.159.657,2.429.741l.28.087c.257.082.512.163.765.233.025.006.049,0,.074.01a3.7,3.7,0,0,0,1.38.276c3.348,0,5.192-4.316,5.192-12.15S2936.1,2925.046,2932.755,2925.046Zm-25.054,14.412a5.75,5.75,0,0,0,.5,1.236l-2.377.481a14.558,14.558,0,0,1,0-6.931l2.019.409A8.674,8.674,0,0,0,2907.7,2939.458Zm2.03-4.95c.36-.347,3.172-1.656,11.431-4.365,2.771-.909,5.406-1.726,7.472-2.336a20.3,20.3,0,0,0-.059,18.678l-.445-.135c-4.588-1.4-16.775-5.1-17.518-5.453a2.822,2.822,0,0,1-1.3-1.876A6.44,6.44,0,0,1,2909.731,2934.508ZM2928,2937.2c0-5.6,1.965-9.554,4.023-10.332a5.455,5.455,0,0,1,.737-.15c2.172,0,3.52,4.02,3.52,10.482s-1.349,10.482-3.523,10.482C2930.457,2947.679,2928,2943.467,2928,2937.2Z"/><path class="c" d="M2940.812,2933.534a.844.844,0,0,0,.427-.118l4.938-2.963a.835.835,0,0,0,.286-1.144.823.823,0,0,0-.513-.38.84.84,0,0,0-.631.093l-4.937,2.963a.834.834,0,0,0,.43,1.549Z"/><path class="c" d="M2946.177,2943.484l-4.938-2.962a.839.839,0,0,0-.631-.093.833.833,0,0,0-.226,1.524l4.936,2.961a.834.834,0,1,0,.859-1.43Z"/></g><circle class="d" cx="14" cy="14" r="14" transform="translate(15)"/></svg>