<svg xmlns="http://www.w3.org/2000/svg" width="85.77" height="80" viewBox="0 0 85.77 80"><defs><style>.a{fill:#ec7aa1;}.b{fill:#ffd900;}</style></defs><path class="a" d="M976.006,890.757c-17.056,0-30.883-11.442-30.883-25.556,0-8.273,4.758-15.625,12.129-20.295a38.358,38.358,0,0,0-26.446,10.922,8.342,8.342,0,1,0-7.65,11.67c.08,0,.156-.01.234-.012a28.787,28.787,0,0,0-1.648,9.6c0,17.786,16.285,32.2,36.374,32.2,16.346,0,30.17-9.547,34.756-22.685A35.493,35.493,0,0,1,976.006,890.757Z" transform="translate(-914.814 -829.291)"/><path class="b" d="M985.751,834.864a4.9,4.9,0,1,0-7.088.256,25.848,25.848,0,0,0-14.6,7.127,29.064,29.064,0,0,1,5.44-.515c13.766,0,24.928,9.531,24.928,21.288A18.647,18.647,0,0,1,992.1,872c9.063-2.8,15.487-9.783,15.487-17.961C1007.592,844.057,998.018,835.845,985.751,834.864Z" transform="translate(-921.822 -826.7)"/></svg>