<svg xmlns="http://www.w3.org/2000/svg" width="1920" height="300" viewBox="0 0 1920 300"><defs><style>.a{fill:#d9f8fb;}</style></defs><path class="a" d="M1705.163,2905.682c-16.768-21.906-46.766-14.9-46.766-14.9s-15.09-19.54-53.393-21.425-61.745,9.988-61.745,9.988-7.675-20.732-55.39-38.136-213.2,48.215-368.564,42.315-363.278-56.841-363.289-56.844h0c-.01,0-207.926,50.945-363.289,56.844s-320.85-59.72-368.564-42.315-55.389,38.136-55.389,38.136-23.442-11.873-61.746-9.988-53.392,21.425-53.392,21.425-30-7.005-46.767,14.9-9.106,221-9.106,221H1714.269S1721.931,2927.588,1705.163,2905.682Z" transform="translate(203.984 -2826.679)"/></svg>