<svg xmlns="http://www.w3.org/2000/svg" width="158.654" height="150" viewBox="0 0 158.654 150"><defs><style>.a{opacity:0.3;}.b{fill:#ec7aa1;}.c{fill:#ffd900;}</style></defs><g class="a" transform="translate(-895.151 -801.548)"><path class="b" d="M1006.6,913.682c-25.584,0-46.325-17.162-46.325-38.334,0-12.41,7.137-23.438,18.193-30.442-15.8.325-29.934,6.6-39.67,16.383a12.513,12.513,0,1,0-11.475,17.5c.12,0,.234-.015.351-.018a43.179,43.179,0,0,0-2.473,14.4c0,26.679,24.428,48.3,54.561,48.3,24.519,0,45.255-14.321,52.134-34.028A53.24,53.24,0,0,1,1006.6,913.682Z" transform="translate(-4.663 -4.935)"/><path class="c" d="M996.594,838.947a7.352,7.352,0,1,0-10.632.385,38.77,38.77,0,0,0-21.9,10.69,43.59,43.59,0,0,1,8.161-.772c20.649,0,37.392,14.3,37.392,31.932a27.97,27.97,0,0,1-3.492,13.471c13.595-4.2,23.231-14.674,23.231-26.942C1029.356,852.736,1014.995,840.417,996.594,838.947Z" transform="translate(9.45 -10.152)"/></g></svg>