<svg xmlns="http://www.w3.org/2000/svg" width="130" height="80" viewBox="0 0 130 80"><defs><style>.a,.b{fill:#b5a272;letter-spacing:0.1em;}.a{font-size:20px;font-family:NotoSerifJP-Regular, Noto Serif JP;}.b{font-size:12px;font-family:TimesNewRomanPSMT, Times New Roman;}.c{fill:#a68e5c;}.d{fill:#ffcf00;opacity:0;}</style></defs><text class="a" transform="translate(65 56.867)"><tspan x="-65" y="0">お</tspan><tspan y="0">問</tspan><tspan y="0">い</tspan><tspan y="0">合</tspan><tspan y="0">わせ</tspan></text><text class="b" transform="translate(64 77)"><tspan x="-22.262" y="0">Contact</tspan></text><path class="c" d="M3969.078,2926.027a.831.831,0,0,0-.832-.83l-36.03.017a.831.831,0,0,0-.831.832l.011,22.32a.831.831,0,0,0,.831.831l36.031-.018a.829.829,0,0,0,.83-.831Zm-36.3,2.573,13.486,9.034-13.477,9.044Zm.837,19.2,13.9-9.327,2.716,1.819,2.718-1.822,13.908,9.314Zm20.588-10.169,13.477-9.047.009,18.078Zm-3.969.979-17.924-12,35.837-.017Z" transform="translate(-3885.236 -2925.197)"/><circle class="d" cx="14" cy="14" r="14" transform="translate(34 6.63)"/></svg>