<svg xmlns="http://www.w3.org/2000/svg" width="86" height="91.37" viewBox="0 0 86 91.37"><defs><style>.a,.b{fill:#b5a272;letter-spacing:0.1em;}.a{font-size:20px;font-family:NotoSerifJP-Regular, Noto Serif JP;}.b{font-size:12px;font-family:TimesNewRomanPSMT, Times New Roman;}.c{fill:#a68e5c;}.d{fill:#ffcf00;opacity:0;}</style></defs><text class="a" transform="translate(43 68.237)"><tspan x="-43" y="0">施設案内</tspan></text><text class="b" transform="translate(42 88.37)"><tspan x="-22.531" y="0">Facility</tspan></text><g transform="translate(-3487.237 -2860.645)"><path class="c" d="M3537.883,2879.01V2869.2h-15.293v9.813h-8.628V2896.2h1.707v-15.48h8.628V2870.9h11.879v9.813h8.628v15.48h1.707V2879.01Z"/><path class="c" d="M3531.46,2873.2h-2.447v2h-2v2.447h2v2h2.447v-2h2V2875.2h-2Z"/><rect class="c" width="3.414" height="4.553" transform="translate(3523.015 2883.441)"/><rect class="c" width="3.414" height="4.553" transform="translate(3528.53 2883.441)"/><rect class="c" width="3.414" height="4.553" transform="translate(3534.045 2883.441)"/><rect class="c" width="3.414" height="4.553" transform="translate(3523.015 2890.713)"/><rect class="c" width="3.414" height="4.553" transform="translate(3528.53 2890.713)"/><rect class="c" width="3.414" height="4.553" transform="translate(3534.045 2890.713)"/></g><circle class="d" cx="14" cy="14" r="14" transform="translate(19)"/></svg>