<svg xmlns="http://www.w3.org/2000/svg" width="124" height="140.376" viewBox="0 0 124 140.376"><defs><style>.a{fill:#ec7aa1;}.b{fill:#ffd900;}.c,.d,.e{fill:#777;font-family:MatisseCID-M-83pv-RKSJ-H, MatisseCID;}.c{font-size:12px;letter-spacing:0.1em;}.d{font-size:14px;}.e{font-size:28px;letter-spacing:0.14em;}</style></defs><g transform="translate(-884.814 -807.7)"><path class="a" d="M960.708,879.294c-12.792,0-23.162-8.581-23.162-19.167,0-6.205,3.568-11.719,9.1-15.221a28.769,28.769,0,0,0-19.835,8.191,6.257,6.257,0,1,0-5.737,8.752c.06,0,.117-.008.176-.009a21.591,21.591,0,0,0-1.236,7.2c0,13.34,12.214,24.152,27.281,24.152,12.26,0,22.628-7.16,26.067-17.014A26.619,26.619,0,0,1,960.708,879.294Z" transform="translate(0 -6.495)"/><path class="b" d="M980.329,832.823a3.676,3.676,0,1,0-5.316.192,19.386,19.386,0,0,0-10.949,5.345,21.8,21.8,0,0,1,4.08-.386c10.324,0,18.7,7.148,18.7,15.966a13.985,13.985,0,0,1-1.746,6.736c6.8-2.1,11.616-7.337,11.616-13.471C996.71,839.718,989.529,833.559,980.329,832.823Z" transform="translate(-17.569)"/></g><text class="c" transform="translate(62 12)"><tspan x="-39" y="0">産科・婦人科</tspan></text><g transform="translate(-881.454 -862.374)"><text class="d" transform="translate(882.964 965.374)"><tspan x="0" y="0">医療法人賢仁会</tspan></text><text class="e" transform="translate(881.454 996.75)"><tspan x="0" y="0">松岡病院</tspan></text></g></svg>