<svg xmlns="http://www.w3.org/2000/svg" width="86" height="87.818" viewBox="0 0 86 87.818"><defs><style>.a,.b{fill:#b5a272;letter-spacing:0.1em;}.a{font-size:20px;font-family:NotoSerifJP-Regular, Noto Serif JP;}.b{font-size:12px;font-family:TimesNewRomanPSMT, Times New Roman;}.c{fill:#a68e5c;}.d{fill:#ffcf00;opacity:0;}</style></defs><text class="a" transform="translate(43 64.685)"><tspan x="-43" y="0">診療案内</tspan></text><text class="b" transform="translate(42 84.818)"><tspan x="-23.258" y="0">Medical</tspan></text><path class="c" d="M3155.62,2910.111h-4.357l.658,1.266h.008v2.231h.724c-.09,4.339-2.429,6.967-5.3,6.967-2.928,0-5.31-2.727-5.31-6.081v-10.971a1.374,1.374,0,0,0,.2-.193c6.221-.073,7.632-8.711,7.632-10.308a2.362,2.362,0,0,0-2.431-2.447h-2.569v-.378h-1.54v2.3h1.54v-.3h2.569a.753.753,0,0,1,.81.827c0,.086-.8,8.592-6,8.685a1.287,1.287,0,0,0-2.025-.005c-5.108-.2-5.9-8.594-5.9-8.68a.752.752,0,0,1,.81-.827h2.568v.3h1.541v-2.3H3137.7v.378h-2.568a2.362,2.362,0,0,0-2.431,2.447c0,1.586,1.4,10.129,7.521,10.3a1.22,1.22,0,0,0,.2.2v10.97c0,4.246,3.109,7.7,6.931,7.7,3.76,0,6.824-3.351,6.921-8.589h.681v-2.231h.007Z" transform="translate(-3100.798 -2890.197)"/><circle class="d" cx="14" cy="14" r="14" transform="translate(46 10.552)"/></svg>